<svg width="41" height="39" viewBox="0 0 41 39" fill="none" xmlns="http://www.w3.org/2000/svg">
<g clip-path="url(#clip0_14_24)">
<path d="M26.65 19.5C26.65 21.0515 26.0021 22.5395 24.8487 23.6366C23.6954 24.7337 22.1311 25.35 20.5 25.35C18.8689 25.35 17.3046 24.7337 16.1513 23.6366C14.998 22.5395 14.35 21.0515 14.35 19.5C14.35 19.1666 14.3869 18.8409 14.4505 18.525H12.3V26.3192C12.3 26.8613 12.7613 27.3 13.3312 27.3H27.6709C27.944 27.2995 28.2058 27.196 28.3987 27.0121C28.5917 26.8282 28.7 26.579 28.7 26.3192V18.525H26.5496C26.6131 18.8409 26.65 19.1666 26.65 19.5V19.5ZM20.5 23.4C21.0386 23.3999 21.5718 23.2989 22.0693 23.1027C22.5668 22.9066 23.0189 22.6191 23.3996 22.2568C23.7803 21.8944 24.0823 21.4643 24.2882 20.991C24.4942 20.5177 24.6001 20.0104 24.6 19.4981C24.5999 18.9858 24.4937 18.4786 24.2874 18.0053C24.0812 17.5321 23.779 17.1021 23.3981 16.74C23.0172 16.3778 22.565 16.0906 22.0674 15.8947C21.5698 15.6987 21.0365 15.598 20.498 15.5981C19.4103 15.5983 18.3673 16.0096 17.5984 16.7413C16.8295 17.4731 16.3977 18.4654 16.398 19.5C16.3982 20.5346 16.8306 21.5268 17.5998 22.2582C18.3691 22.9895 19.4123 23.4003 20.5 23.4V23.4ZM25.42 15.405H27.878C28.0413 15.405 28.1979 15.3435 28.3136 15.2338C28.4292 15.1242 28.4945 14.9754 28.495 14.82V12.482C28.495 12.3263 28.43 12.177 28.3143 12.0669C28.1986 11.9569 28.0416 11.895 27.878 11.895H25.42C25.2564 11.895 25.0994 11.9569 24.9837 12.0669C24.868 12.177 24.803 12.3263 24.803 12.482V14.82C24.805 15.1418 25.0818 15.405 25.42 15.405V15.405ZM20.5 0.780029C15.2805 0.780029 10.2749 2.75231 6.58415 6.26299C2.89343 9.77367 0.820007 14.5352 0.820007 19.5C0.820007 24.4649 2.89343 29.2264 6.58415 32.7371C10.2749 36.2478 15.2805 38.22 20.5 38.22C23.0844 38.22 25.6435 37.7358 28.0312 36.7951C30.4189 35.8543 32.5884 34.4754 34.4159 32.7371C36.2433 30.9988 37.6929 28.9351 38.682 26.6639C39.671 24.3927 40.18 21.9584 40.18 19.5C40.18 17.0417 39.671 14.6074 38.682 12.3362C37.6929 10.065 36.2433 8.0013 34.4159 6.26299C32.5884 4.52468 30.4189 3.14577 28.0312 2.205C25.6435 1.26424 23.0844 0.780029 20.5 0.780029V0.780029ZM30.75 27.0836C30.75 28.275 29.725 29.25 28.4725 29.25H12.5276C11.275 29.25 10.25 28.275 10.25 27.0836V11.9165C10.25 10.725 11.275 9.75003 12.5276 9.75003H28.4725C29.725 9.75003 30.75 10.725 30.75 11.9165V27.0836V27.0836Z" fill="black"/>
</g>
<defs>
<clipPath id="clip0_14_24">
<rect width="41" height="39" fill="white"/>
</clipPath>
</defs>
</svg>
