<svg width="41" height="39" viewBox="0 0 41 39" fill="none" xmlns="http://www.w3.org/2000/svg">
<g clip-path="url(#clip0_14_27)">
<mask id="mask0_14_27" style="mask-type:alpha" maskUnits="userSpaceOnUse" x="0" y="0" width="41" height="39">
<path d="M0 0H41V39H0V0Z" fill="white"/>
</mask>
<g mask="url(#mask0_14_27)">
<mask id="mask1_14_27" style="mask-type:alpha" maskUnits="userSpaceOnUse" x="0" y="0" width="41" height="39">
<path d="M0 0H41V39H0V0Z" fill="white"/>
</mask>
<g mask="url(#mask1_14_27)">
<path d="M0 19.5C0 27.8249 5.48546 34.9326 13.2054 37.7293C13.0175 36.2066 12.8176 33.696 13.2481 31.9345C13.6188 30.42 15.6415 22.2852 15.6415 22.2852C15.6415 22.2852 15.0316 21.1234 15.0316 19.4025C15.0316 16.705 16.675 14.69 18.7233 14.69C20.4658 14.69 21.3063 15.9331 21.3063 17.4233C21.3063 19.0889 20.1908 21.5784 19.6151 23.8875C19.135 25.8196 20.635 27.3959 22.6371 27.3959C26.2639 27.3959 29.0536 23.7575 29.0536 18.5055C29.0536 13.8564 25.5413 10.608 20.5273 10.608C14.7224 10.608 11.3143 14.7501 11.3143 19.032C11.3143 20.7009 11.9891 22.4884 12.833 23.4617C12.9049 23.5353 12.9558 23.6252 12.9806 23.7228C13.0055 23.8204 13.0034 23.9225 12.9748 24.0191C12.8193 24.6334 12.4743 25.9512 12.4076 26.221C12.3171 26.5752 12.1121 26.6516 11.7243 26.4794C9.17546 25.3516 7.58329 21.8075 7.58329 18.9605C7.58329 12.8359 12.259 7.21338 21.0655 7.21338C28.1448 7.21338 33.6473 12.012 33.6473 18.4243C33.6473 25.1144 29.2142 30.4996 23.0574 30.4996C20.9886 30.4996 19.0462 29.4759 18.38 28.2685C18.38 28.2685 17.3567 31.9768 17.109 32.8835C16.6272 34.645 15.2913 36.8745 14.4627 38.1404C16.3727 38.6994 18.3988 39 20.5 39C31.8211 39 41 30.2689 41 19.5C41 8.73113 31.8211 0 20.5 0C9.17888 0 0 8.73113 0 19.5Z" fill="black"/>
</g>
</g>
</g>
<defs>
<clipPath id="clip0_14_27">
<rect width="41" height="39" fill="white"/>
</clipPath>
</defs>
</svg>
