<svg width="41" height="39" viewBox="0 0 41 39" fill="none" xmlns="http://www.w3.org/2000/svg">
<path d="M20.5 0C9.17924 0 0 8.73147 0 19.5C0 30.2685 9.17924 39 20.5 39C31.8208 39 41 30.2685 41 19.5C41 8.73147 31.8208 0 20.5 0ZM30.3519 14.699C30.3656 14.9036 30.3656 15.1169 30.3656 15.3258C30.3656 21.7155 25.2498 29.0759 15.9012 29.0759C13.0184 29.0759 10.3461 28.2794 8.09475 26.9083C8.50658 26.9518 8.90011 26.9692 9.32109 26.9692C11.7006 26.9692 13.8878 26.2031 15.6313 24.906C13.3982 24.8625 11.5221 23.4696 10.8815 21.5545C11.664 21.6633 12.3686 21.6633 13.174 21.4674C12.0242 21.2452 10.9907 20.6512 10.2492 19.7863C9.5076 18.9215 9.10368 17.839 9.10603 16.723V16.6621C9.77868 17.0233 10.5703 17.2453 11.3985 17.2758C10.7023 16.8344 10.1313 16.2364 9.73618 15.5348C9.34106 14.8333 9.13405 14.0498 9.13348 13.2539C9.13348 12.3529 9.38058 11.5302 9.82444 10.8164C11.1007 12.3108 12.6932 13.5331 14.4986 14.4037C16.3039 15.2744 18.2816 15.7739 20.3032 15.8699C19.5848 12.5836 22.1656 9.92411 25.2681 9.92411C26.7324 9.92411 28.0502 10.5074 28.9791 11.4475C30.1277 11.243 31.2259 10.8338 32.2051 10.2854C31.8253 11.404 31.0291 12.3485 29.9721 12.9449C30.9971 12.8404 31.9855 12.5705 32.9007 12.1919C32.2097 13.1581 31.3449 14.0156 30.3519 14.699V14.699Z" fill="black"/>
</svg>
